<svg width="228" height="53" viewBox="0 0 228 53" fill="none" xmlns="http://www.w3.org/2000/svg">
<path d="M49.9264 30.385C49.9264 33.575 48.7566 36.0906 46.3547 37.9372C43.9529 39.7837 41.023 40.6759 37.3892 40.6759C31.7366 40.6759 26.9898 38.3262 24.0651 34.4204L28.4702 29.0831C31.2603 32.0137 34.3196 33.4453 37.5031 33.4453C39.8428 33.4453 41.5976 32.5324 41.5976 30.774C41.5976 29.4099 40.6866 28.886 38.2795 27.8486L34.8372 26.4118C32.0575 25.2811 29.9507 24.0881 28.5013 22.6513H16.0003C14.3986 22.6499 12.8628 22.0117 11.7303 20.8769C10.5977 19.742 9.96079 18.2031 9.95941 16.5982H26.0787C26.0666 15.3727 26.288 14.1563 26.731 13.014H6.02535C4.42363 13.0085 2.88954 12.3664 1.75987 11.2286C0.630194 10.0908 -0.00274313 8.55027 8.93721e-06 6.94529H37.9068C42.7157 6.94529 46.5514 8.57399 49.4761 11.7639L45.0347 17.1687C42.8865 15.151 40.4847 14.1084 37.8188 14.1084C35.6758 14.1084 34.3765 14.8865 34.3765 16.3855C34.3765 17.62 35.2203 18.2113 37.7567 19.2539L40.8626 20.5506C47.1364 23.0922 49.9264 25.6338 49.9264 30.385Z" fill="#EEF511"/>
<path d="M70.5596 7.44324C76.88 7.44324 81.7665 10.4413 84.5669 15.4052L78.4433 20.1668C76.4245 17.231 74.0795 15.4674 70.6787 15.4674C65.73 15.4674 62.2152 19.2539 62.2152 24.2852C62.2152 29.441 65.73 33.1652 70.6787 33.1652C74.0019 33.1652 76.3468 31.4691 78.4433 28.5281L84.5669 33.2274C81.7665 38.1913 76.8023 41.2568 70.5596 41.2568C61.1178 41.4539 53.1669 33.6216 53.3015 24.2852C53.317 14.819 60.9832 7.44324 70.5596 7.44324Z" fill="#EEF511"/>
<path d="M105.868 7.44324C115.31 7.30838 123.39 15.0784 123.193 24.28C123.39 33.4868 115.248 41.3968 105.801 41.1894C96.3536 41.3813 88.4079 33.4868 88.6046 24.28C88.4079 15.0784 96.4209 7.2617 105.868 7.44324ZM105.868 15.4674C100.981 15.4674 97.5287 19.1916 97.5287 24.3474C97.5287 29.3736 100.981 33.0926 105.868 33.0926C110.62 33.0926 114.207 29.3736 114.207 24.3474C114.207 19.3213 110.62 15.4674 105.868 15.4674Z" fill="#EEF511"/>
<path d="M145.457 7.44324C154.899 7.30838 162.979 15.0784 162.782 24.28C162.979 33.4868 154.837 41.3968 145.39 41.1894C135.943 41.3813 127.997 33.4868 128.194 24.28C128.013 15.0784 136.026 7.2617 145.457 7.44324ZM145.457 15.4674C140.57 15.4674 137.118 19.1916 137.118 24.3474C137.118 29.3736 140.57 33.0926 145.457 33.0926C150.209 33.0926 153.791 29.3736 153.791 24.3474C153.791 19.3213 150.224 15.4674 145.457 15.4674Z" fill="#EEF511"/>
<path d="M190.352 40.458C188.368 40.9721 186.329 41.2386 184.28 41.2516C176.138 41.2516 171.38 37.2058 171.38 29.1142V15.6023H166.297V8.15903H171.38V0H180.18V8.15903H189.301V15.6023H180.191V28.3258C180.191 31.9566 182.013 33.3519 186.185 33.3519C186.703 33.3519 188.069 33.2897 190.352 33.0926V40.458Z" fill="#EEF511"/>
<path d="M228 8.15903L212.564 43.2745C209.634 50.0175 205.726 53 199.732 53C197.808 52.9907 195.893 52.7274 194.038 52.2168V44.841C196.056 45.0381 197.294 45.1055 197.816 45.1055C200.922 45.1055 203.029 44.1252 204.546 40.7277L205.524 38.5129L193.152 8.15903H202.47L210.354 29.3736L218.755 8.15903H228Z" fill="#EEF511"/>
</svg>
