<svg width="126" height="18" viewBox="0 0 126 18" fill="none" xmlns="http://www.w3.org/2000/svg">
<g clip-path="url(#clip0_217_1019)">
<path d="M14.5764 11.5995C14.5764 12.5023 14.2363 13.2143 13.5336 13.7369C12.8308 14.2595 11.9785 14.512 10.916 14.512C9.26568 14.512 7.87984 13.847 7.02597 12.7416L8.31204 11.231C9.12819 12.0604 10.0199 12.4657 10.9492 12.4657C11.6323 12.4657 12.1447 12.2073 12.1447 11.7096C12.1447 11.3236 11.8787 11.1753 11.176 10.8817L10.171 10.475C9.35942 10.155 8.74432 9.81735 8.32115 9.41077H4.67138C4.43984 9.41077 4.21058 9.36645 3.99669 9.28027C3.78279 9.19417 3.58846 9.06795 3.42482 8.90887C3.26117 8.7498 3.13139 8.56095 3.04292 8.35305C2.95446 8.14522 2.90902 7.92247 2.90923 7.69762H7.61537C7.61108 7.35071 7.67574 7.00629 7.80579 6.6832H1.76065C1.29275 6.68204 0.844485 6.50047 0.514339 6.17841C0.184197 5.85635 -0.000800132 5.42014 2.60152e-06 4.96564H11.0672C12.4711 4.96564 13.591 5.4266 14.4448 6.32941L13.1481 7.8591C12.5225 7.28802 11.8198 6.99295 11.043 6.99295C10.4158 6.99295 10.0364 7.21315 10.0364 7.6374C10.0364 7.98682 10.2828 8.15415 11.0233 8.4492L11.9301 8.81617C13.7617 9.5355 14.5764 10.2548 14.5764 11.5995Z" fill="#191A1A"/>
<path d="M20.6003 5.10658C22.4455 5.10658 23.8721 5.95508 24.6898 7.35996L22.9019 8.70757C22.3125 7.87672 21.6279 7.37758 20.635 7.37758C19.1887 7.37758 18.1625 8.4492 18.1625 9.87315C18.1625 11.3323 19.1887 12.3864 20.635 12.3864C21.6037 12.3864 22.2883 11.9063 22.9019 11.074L24.6898 12.404C23.8721 13.8088 22.4228 14.6764 20.6003 14.6764C17.8436 14.7322 15.5238 12.5155 15.5616 9.87315C15.5661 7.19407 17.8058 5.10658 20.6003 5.10658Z" fill="#191A1A"/>
<path d="M30.9089 5.10658C33.667 5.06841 36.0246 7.26747 35.9672 9.87173C36.0246 12.4774 33.6473 14.7161 30.8893 14.6574C28.1327 14.7117 25.8113 12.4774 25.8688 9.87173C25.8113 7.26747 28.1508 5.0552 30.9089 5.10658ZM30.9089 7.37757C29.4823 7.37757 28.4742 8.43158 28.4742 9.89078C28.4742 11.3133 29.4823 12.3659 30.9089 12.3659C32.2978 12.3659 33.3436 11.3133 33.3436 9.89078C33.3436 8.46833 32.2978 7.37757 30.9089 7.37757Z" fill="#191A1A"/>
<path d="M42.4672 5.10658C45.2253 5.06841 47.5828 7.26747 47.5255 9.87173C47.5828 12.4774 45.2056 14.7161 42.4475 14.6574C39.691 14.7117 37.3696 12.4774 37.427 9.87173C37.3741 7.26747 39.7136 5.0552 42.4672 5.10658ZM42.4672 7.37757C41.0405 7.37757 40.0325 8.43158 40.0325 9.89078C40.0325 11.3133 41.0405 12.3659 42.4672 12.3659C43.8545 12.3659 44.9018 11.3133 44.9018 9.89078C44.9018 8.46833 43.8591 7.37757 42.4672 7.37757Z" fill="#191A1A"/>
<path d="M55.5745 14.4504C54.9954 14.5959 54.4 14.6713 53.8018 14.6749C51.4245 14.6749 50.0357 13.5299 50.0357 11.2399V7.41574H48.5576V5.30916H50.0402V3H52.6094V5.30916H55.2723V7.41574H52.6079V11.0167C52.6079 12.0443 53.1399 12.4392 54.358 12.4392C54.5091 12.4392 54.9096 12.4216 55.5745 12.3658V14.4504Z" fill="#191A1A"/>
<path d="M66.5659 5.30915L62.0593 15.2475C61.204 17.1559 60.0629 18 58.3129 18C57.7511 17.9973 57.1922 17.9227 56.6505 17.7783V15.6908C57.2399 15.7466 57.6011 15.7657 57.7537 15.7657C58.6604 15.7657 59.2755 15.4882 59.7184 14.5267L60.004 13.8999L56.392 5.30915H59.1124L61.4125 11.3133L63.8668 5.30915H66.5659Z" fill="#191A1A"/>
<path d="M83.267 5.04375L80.751 10.9875L77.7594 4.8375H77.0462L74.0944 11.0625L71.5387 5.04375H69.3198L73.6387 14.4562H74.3519L77.4028 8.325L80.4538 14.4562H81.167L85.4859 5.04375H83.267ZM94.7972 8.68125C94.7972 6.20625 93.2123 4.8375 90.8151 4.8375C89.1311 4.8375 87.6849 5.475 86.7142 6.80625L87.9227 7.96875C88.7349 7.05 89.5274 6.6 90.617 6.6C91.9444 6.6 92.6972 7.29375 92.6972 8.56875V9.16875H89.9434C87.7444 9.16875 86.3576 10.2 86.3576 11.7937C86.3576 13.3875 87.7047 14.4562 89.7453 14.4562C91.0727 14.4562 92.1425 14.025 92.8557 13.2187V14.25H94.7972V8.68125ZM92.6972 10.7625C92.6972 12.0187 91.5878 12.9375 90.1811 12.9375C89.1708 12.9375 88.4774 12.4875 88.4774 11.7187C88.4774 10.9687 89.0915 10.5937 90.201 10.5937H92.6972V10.7625ZM97.7911 14.25H99.8713V0.1875H97.7911V14.25ZM102.978 14.25H105.059V0.1875H102.978V14.25ZM116.922 10.2937C117.022 9.8625 117.081 9.45 117.081 9.05625C117.081 6.65625 115.159 4.8375 112.584 4.8375C109.83 4.78125 107.492 7.0125 107.552 9.65625C107.552 12.375 109.81 14.4562 112.782 14.4562C114.268 14.4562 115.555 13.9687 116.665 12.975L115.674 11.625C114.803 12.3562 113.852 12.7125 112.841 12.7125C111.177 12.7125 109.929 11.7937 109.672 10.2937H116.922ZM109.711 8.75625C110.028 7.3875 111.138 6.50625 112.505 6.50625C113.872 6.50625 114.981 7.35 115.001 8.75625H109.711ZM125.349 12.5812C124.774 12.6375 124.358 12.675 124.061 12.675C122.793 12.675 122.139 12.2625 122.139 11.0812V6.75H125.032V5.04375H122.139V2.625H120.039V5.04375H118.454V6.75H120.039V11.25C120.039 13.4062 121.386 14.4562 123.625 14.4562C124.12 14.4562 124.695 14.3812 125.349 14.25V12.5812Z" fill="#3B3D10"/>
</g>
<defs>
<clipPath id="clip0_217_1019">
<rect width="126" height="18" fill="white"/>
</clipPath>
</defs>
</svg>
